<mxfile host="app.diagrams.net" agent="Mozilla/5.0 (Windows NT 10.0; Win64; x64) AppleWebKit/537.36 (KHTML, like Gecko) Chrome/133.0.0.0 Safari/537.36" version="26.1.1">
  <diagram name="Página-1" id="z1kmiEKgyMU83rp5t6B3">
    <mxGraphModel dx="1194" dy="742" grid="1" gridSize="10" guides="1" tooltips="1" connect="1" arrows="1" fold="1" page="1" pageScale="1" pageWidth="827" pageHeight="1169" math="0" shadow="0">
      <root>
        <mxCell id="0" />
        <mxCell id="1" parent="0" />
        <mxCell id="ATzn8iyYp2ZHihdK4YN9-3" value="" style="sketch=0;outlineConnect=0;fontColor=#232F3E;gradientColor=none;fillColor=#232F3D;strokeColor=none;dashed=0;verticalLabelPosition=bottom;verticalAlign=top;align=center;html=1;fontSize=12;fontStyle=0;aspect=fixed;pointerEvents=1;shape=mxgraph.aws4.traditional_server;" vertex="1" parent="1">
          <mxGeometry x="160" y="80" width="90" height="156.01" as="geometry" />
        </mxCell>
        <mxCell id="ATzn8iyYp2ZHihdK4YN9-9" value="" style="sketch=0;outlineConnect=0;fontColor=#232F3E;gradientColor=none;fillColor=#232F3D;strokeColor=none;dashed=0;verticalLabelPosition=bottom;verticalAlign=top;align=center;html=1;fontSize=12;fontStyle=0;aspect=fixed;pointerEvents=1;shape=mxgraph.aws4.traditional_server;" vertex="1" parent="1">
          <mxGeometry x="160" y="360" width="90" height="156.01" as="geometry" />
        </mxCell>
        <mxCell id="ATzn8iyYp2ZHihdK4YN9-10" value="" style="sketch=0;outlineConnect=0;fontColor=#232F3E;gradientColor=none;fillColor=#232F3D;strokeColor=none;dashed=0;verticalLabelPosition=bottom;verticalAlign=top;align=center;html=1;fontSize=12;fontStyle=0;aspect=fixed;pointerEvents=1;shape=mxgraph.aws4.traditional_server;" vertex="1" parent="1">
          <mxGeometry x="483" y="236.01" width="90" height="156.01" as="geometry" />
        </mxCell>
        <mxCell id="ATzn8iyYp2ZHihdK4YN9-12" value="" style="image;sketch=0;aspect=fixed;html=1;points=[];align=center;fontSize=12;image=img/lib/mscae/Key_Vaults.svg;rotation=-45;" vertex="1" parent="1">
          <mxGeometry x="440" y="600.86" width="38.4" height="40" as="geometry" />
        </mxCell>
        <mxCell id="ATzn8iyYp2ZHihdK4YN9-13" value="" style="image;sketch=0;aspect=fixed;html=1;points=[];align=center;fontSize=12;image=img/lib/mscae/Key_Vaults.svg;rotation=-45;" vertex="1" parent="1">
          <mxGeometry x="497" y="330" width="24" height="25" as="geometry" />
        </mxCell>
        <mxCell id="ATzn8iyYp2ZHihdK4YN9-15" value="" style="image;aspect=fixed;perimeter=ellipsePerimeter;html=1;align=center;shadow=0;dashed=0;fontColor=#4277BB;labelBackgroundColor=default;fontSize=12;spacingTop=3;image=img/lib/ibm/vpc/Key.svg;" vertex="1" parent="1">
          <mxGeometry x="180.00000000000003" y="450" width="50" height="50" as="geometry" />
        </mxCell>
        <mxCell id="ATzn8iyYp2ZHihdK4YN9-16" value="" style="image;aspect=fixed;perimeter=ellipsePerimeter;html=1;align=center;shadow=0;dashed=0;fontColor=#4277BB;labelBackgroundColor=default;fontSize=12;spacingTop=3;image=img/lib/ibm/vpc/Key.svg;" vertex="1" parent="1">
          <mxGeometry x="180.00000000000003" y="170" width="50" height="50" as="geometry" />
        </mxCell>
        <mxCell id="ATzn8iyYp2ZHihdK4YN9-17" value="" style="shape=flexArrow;endArrow=classic;startArrow=none;html=1;rounded=0;startFill=0;fillColor=#647687;strokeColor=#314354;entryX=0.522;entryY=0.024;entryDx=0;entryDy=0;entryPerimeter=0;" edge="1" parent="1" target="ATzn8iyYp2ZHihdK4YN9-10">
          <mxGeometry width="100" height="100" relative="1" as="geometry">
            <mxPoint x="250" y="157.5" as="sourcePoint" />
            <mxPoint x="530" y="230" as="targetPoint" />
            <Array as="points">
              <mxPoint x="530" y="158" />
            </Array>
          </mxGeometry>
        </mxCell>
        <mxCell id="ATzn8iyYp2ZHihdK4YN9-18" value="" style="shape=flexArrow;endArrow=classic;startArrow=none;html=1;rounded=0;startFill=0;fillColor=#647687;strokeColor=#314354;exitX=1;exitY=0.577;exitDx=0;exitDy=0;exitPerimeter=0;" edge="1" parent="1" source="ATzn8iyYp2ZHihdK4YN9-9" target="ATzn8iyYp2ZHihdK4YN9-10">
          <mxGeometry width="100" height="100" relative="1" as="geometry">
            <mxPoint x="251" y="440" as="sourcePoint" />
            <mxPoint x="531" y="522.5" as="targetPoint" />
            <Array as="points">
              <mxPoint x="530" y="450" />
            </Array>
          </mxGeometry>
        </mxCell>
        <mxCell id="ATzn8iyYp2ZHihdK4YN9-19" value="" style="image;sketch=0;aspect=fixed;html=1;points=[];align=center;fontSize=12;image=img/lib/mscae/Key_Vaults.svg;rotation=-45;" vertex="1" parent="1">
          <mxGeometry x="534" y="330" width="24" height="25" as="geometry" />
        </mxCell>
        <mxCell id="ATzn8iyYp2ZHihdK4YN9-7" value="" style="image;sketch=0;aspect=fixed;html=1;points=[];align=center;fontSize=12;image=img/lib/mscae/Key_Vaults.svg;rotation=-45;" vertex="1" parent="1">
          <mxGeometry x="250" y="136" width="48" height="50" as="geometry" />
        </mxCell>
        <mxCell id="ATzn8iyYp2ZHihdK4YN9-11" value="" style="image;sketch=0;aspect=fixed;html=1;points=[];align=center;fontSize=12;image=img/lib/mscae/Key_Vaults.svg;rotation=-45;" vertex="1" parent="1">
          <mxGeometry x="250" y="425" width="48" height="50" as="geometry" />
        </mxCell>
        <mxCell id="ATzn8iyYp2ZHihdK4YN9-21" value="" style="image;aspect=fixed;perimeter=ellipsePerimeter;html=1;align=center;shadow=0;dashed=0;fontColor=#4277BB;labelBackgroundColor=default;fontSize=12;spacingTop=3;image=img/lib/ibm/vpc/Key.svg;" vertex="1" parent="1">
          <mxGeometry x="160.13" y="600" width="40" height="40" as="geometry" />
        </mxCell>
        <mxCell id="ATzn8iyYp2ZHihdK4YN9-23" value="&lt;h1 style=&quot;margin-top: 0px;&quot;&gt;&lt;font style=&quot;font-size: 18px;&quot;&gt;CHAVE PRIVADA&lt;/font&gt;&lt;/h1&gt;" style="text;html=1;whiteSpace=wrap;overflow=hidden;rounded=0;fontColor=light-dark(#000000,#67AB9F);" vertex="1" parent="1">
          <mxGeometry x="220" y="600" width="160" height="40" as="geometry" />
        </mxCell>
        <mxCell id="ATzn8iyYp2ZHihdK4YN9-24" value="&lt;h1 style=&quot;margin-top: 0px;&quot;&gt;&lt;font style=&quot;font-size: 16px;&quot;&gt;CLIENTE&lt;/font&gt;&lt;/h1&gt;" style="text;html=1;whiteSpace=wrap;overflow=hidden;rounded=0;fontColor=light-dark(#000000,#67AB9F);" vertex="1" parent="1">
          <mxGeometry x="165" y="236.01" width="80" height="40" as="geometry" />
        </mxCell>
        <mxCell id="ATzn8iyYp2ZHihdK4YN9-25" value="&lt;h1 style=&quot;margin-top: 0px;&quot;&gt;&lt;font style=&quot;font-size: 16px;&quot;&gt;CLIENTE&lt;/font&gt;&lt;/h1&gt;" style="text;html=1;whiteSpace=wrap;overflow=hidden;rounded=0;fontColor=light-dark(#000000,#67AB9F);" vertex="1" parent="1">
          <mxGeometry x="160.13" y="516.01" width="80" height="40" as="geometry" />
        </mxCell>
        <mxCell id="ATzn8iyYp2ZHihdK4YN9-26" value="&lt;h1 style=&quot;margin-top: 0px;&quot;&gt;&lt;font style=&quot;font-size: 16px;&quot;&gt;SERVIDOR&lt;/font&gt;&lt;/h1&gt;" style="text;html=1;whiteSpace=wrap;overflow=hidden;rounded=0;fontColor=light-dark(#000000,#67AB9F);" vertex="1" parent="1">
          <mxGeometry x="590" y="300" width="90" height="40" as="geometry" />
        </mxCell>
        <mxCell id="ATzn8iyYp2ZHihdK4YN9-28" value="&lt;h1 style=&quot;margin-top: 0px;&quot;&gt;&lt;font style=&quot;font-size: 18px;&quot;&gt;CHAVE PÚBLICA&lt;/font&gt;&lt;/h1&gt;" style="text;html=1;whiteSpace=wrap;overflow=hidden;rounded=0;fontColor=light-dark(#000000,#67AB9F);" vertex="1" parent="1">
          <mxGeometry x="483" y="600.86" width="160" height="40" as="geometry" />
        </mxCell>
      </root>
    </mxGraphModel>
  </diagram>
</mxfile>
